<?xml version="1.0" standalone="no"?>
<!DOCTYPE svg PUBLIC "-//W3C//DTD SVG 20010904//EN"
 "http://www.w3.org/TR/2001/REC-SVG-20010904/DTD/svg10.dtd">
<svg version="1.0" xmlns="http://www.w3.org/2000/svg"
 width="240.000000pt" height="49.000000pt" viewBox="0 0 240.000000 49.000000"
 preserveAspectRatio="xMidYMid meet">

<g transform="translate(0.000000,49.000000) scale(0.100000,-0.100000)"
fill="#000000" stroke="none">
<path d="M1530 285 c0 -198 1 -205 20 -205 19 0 20 7 20 205 0 198 -1 205 -20
205 -19 0 -20 -7 -20 -205z"/>
<path d="M2070 285 c0 -198 1 -205 20 -205 15 0 20 7 20 26 l0 25 26 -20 c62
-49 151 -45 208 7 83 78 70 209 -26 266 -66 38 -134 32 -185 -16 l-23 -21 0
71 c0 65 -2 72 -20 72 -19 0 -20 -7 -20 -205z m228 65 c33 -21 62 -71 62 -110
0 -11 -9 -38 -19 -58 -41 -81 -146 -92 -206 -21 -46 55 -28 160 33 193 38 21
91 19 130 -4z"/>
<path d="M1730 387 c-75 -40 -109 -133 -76 -210 42 -100 166 -132 250 -66 l26
20 0 -25 c0 -19 5 -26 20 -26 19 0 20 7 20 160 0 153 -1 160 -20 160 -15 0
-20 -7 -20 -27 l0 -26 -22 21 c-51 47 -113 54 -178 19z m140 -32 c57 -30 80
-118 47 -182 -17 -32 -69 -63 -107 -63 -32 0 -87 28 -104 54 -74 114 45 253
164 191z"/>
<path d="M10 385 c0 -12 19 -15 115 -15 96 0 115 3 115 15 0 12 -19 15 -115
15 -96 0 -115 -3 -115 -15z"/>
<path d="M330 200 c0 -171 2 -200 15 -200 12 0 15 14 15 70 0 71 7 83 31 54
38 -46 119 -57 178 -23 55 31 75 65 79 134 4 70 -17 112 -70 145 -60 36 -161
22 -191 -27 -14 -22 -27 -14 -27 17 0 20 -5 30 -15 30 -13 0 -15 -29 -15 -200z
m230 154 c81 -48 78 -175 -5 -230 -40 -26 -119 -15 -157 23 -56 56 -47 151 18
202 33 26 104 28 144 5z"/>
<path d="M730 245 c0 -148 1 -155 20 -155 19 0 20 7 20 155 0 148 -1 155 -20
155 -19 0 -20 -7 -20 -155z"/>
<path d="M851 368 c13 -18 35 -49 51 -69 15 -20 28 -41 28 -46 0 -6 -25 -44
-55 -87 -46 -63 -52 -76 -35 -76 12 0 33 21 60 59 22 33 44 62 49 65 5 4 30
-23 56 -59 25 -36 53 -65 61 -65 7 0 14 3 14 6 0 4 -48 73 -107 155 -70 96
-114 148 -126 149 -17 0 -16 -3 4 -32z"/>
<path d="M1015 361 c-15 -22 -24 -45 -20 -51 9 -14 15 -9 53 44 29 41 31 46
14 46 -11 0 -31 -17 -47 -39z"/>
<path d="M1210 377 c-95 -63 -99 -202 -9 -270 34 -24 106 -33 152 -17 44 14
93 68 77 84 -8 8 -17 3 -33 -16 -29 -34 -58 -48 -102 -48 -67 0 -125 51 -125
110 0 19 6 20 141 20 l142 0 -6 35 c-7 44 -40 91 -77 110 -44 23 -121 19 -160
-8z m150 -22 c25 -13 60 -60 60 -80 0 -3 -56 -5 -125 -5 -69 0 -125 2 -125 5
0 16 33 66 52 79 29 20 100 20 138 1z"/>
<path d="M10 235 c0 -12 14 -15 65 -15 51 0 65 3 65 15 0 12 -14 15 -65 15
-51 0 -65 -3 -65 -15z"/>
<path d="M10 85 c0 -12 19 -15 115 -15 96 0 115 3 115 15 0 12 -19 15 -115 15
-96 0 -115 -3 -115 -15z"/>
</g>
</svg>
